<svg width="19" height="19" viewBox="0 0 19 19" fill="none" xmlns="http://www.w3.org/2000/svg">
<path d="M9.83505 18.91C9.30403 18.9116 8.79446 18.7005 8.42005 18.3239L0.586043 10.4872C0.172632 10.0749 -0.0393472 9.50206 0.00604268 8.91988L0.506043 2.3525C0.577341 1.36467 1.36424 0.579742 2.35204 0.511108L8.91805 0.0110023C8.96905 0 9.02105 0 9.07205 0C9.6019 0.00136053 10.1098 0.212023 10.485 0.586123L18.3201 8.42177C18.6953 8.79695 18.9061 9.30588 18.9061 9.83657C18.9061 10.3673 18.6953 10.8762 18.3201 11.2514L11.249 18.3239C10.8749 18.7003 10.3657 18.9113 9.83505 18.91ZM9.07105 2.00042L2.50004 2.50053L2.00004 9.07291L9.83505 16.9096L16.9051 9.83807L9.07105 2.00042ZM5.59205 7.5936C4.63789 7.5938 3.81646 6.91982 3.63012 5.98383C3.44379 5.04784 3.94445 4.11055 4.82591 3.74517C5.70738 3.37979 6.72414 3.68809 7.25437 4.48153C7.78461 5.27496 7.68064 6.33254 7.00605 7.00747C6.63188 7.38387 6.12272 7.59492 5.59205 7.5936Z" fill="black"/>
</svg>
