<svg width="94" height="94" viewBox="0 0 94 94" fill="none" xmlns="http://www.w3.org/2000/svg">
<path d="M60.2188 39.2881V26.0693C60.2188 23.7321 59.2903 21.4906 57.6376 19.838C55.985 18.1853 53.7435 17.2568 51.4063 17.2568H33.7812" stroke="#FAC251" stroke-width="4" stroke-miterlimit="10" stroke-linecap="round" stroke-linejoin="round"/>
<path d="M45.5313 29.0068L33.7812 17.2568L45.5313 5.50684" stroke="#FAC251" stroke-width="4" stroke-miterlimit="10" stroke-linecap="round" stroke-linejoin="round"/>
<path d="M29.375 90.6943C34.242 90.6943 38.1875 86.7488 38.1875 81.8818C38.1875 77.0148 34.242 73.0693 29.375 73.0693C24.508 73.0693 20.5625 77.0148 20.5625 81.8818C20.5625 86.7488 24.508 90.6943 29.375 90.6943Z" stroke="#FAC251" stroke-width="4" stroke-miterlimit="10" stroke-linecap="round" stroke-linejoin="round"/>
<path d="M79.3125 90.6943C84.1795 90.6943 88.125 86.7488 88.125 81.8818C88.125 77.0148 84.1795 73.0693 79.3125 73.0693C74.4455 73.0693 70.5 77.0148 70.5 81.8818C70.5 86.7488 74.4455 90.6943 79.3125 90.6943Z" stroke="#FAC251" stroke-width="4" stroke-miterlimit="10" stroke-linecap="round" stroke-linejoin="round"/>
<path d="M74.9063 17.2568H88.125L82.25 61.3193H23.5L14.6875 2.56934H2.9375" stroke="#939393" stroke-width="2.3" stroke-miterlimit="10" stroke-linecap="round" stroke-linejoin="round"/>
</svg>
