<svg width="21" height="21" viewBox="0 0 21 21" fill="none" xmlns="http://www.w3.org/2000/svg">
<path d="M4.20106 20.9982C2.43012 20.9978 0.84955 19.8871 0.249106 18.221C-0.351337 16.555 0.157254 14.6913 1.52076 13.5612C2.88426 12.4312 4.80993 12.2773 6.3356 13.1765L13.1867 6.32536C12.1149 4.5044 12.5641 2.17057 14.2353 0.877544C15.9064 -0.415477 18.2783 -0.264381 19.7719 1.23024C21.2654 2.72487 21.4148 5.09684 20.1206 6.76708C18.8264 8.43731 16.4923 8.88486 14.6721 7.81177L7.82201 14.6618C8.58829 15.9611 8.59932 17.5715 7.8509 18.8812C7.10249 20.1908 5.70948 20.9988 4.20106 20.9982ZM4.20106 14.6955C3.04075 14.6955 2.10013 15.6361 2.10013 16.7964C2.10013 17.9567 3.04075 18.8973 4.20106 18.8973C5.36137 18.8973 6.30198 17.9567 6.30198 16.7964C6.30198 15.6361 5.36137 14.6955 4.20106 14.6955ZM16.8066 2.08989C15.6589 2.09105 14.7245 3.01309 14.708 4.16071C14.6916 5.30834 15.5992 6.25677 16.7464 6.29082C17.8937 6.32487 18.8559 5.43194 18.9076 4.28536V4.70555V4.19082C18.9076 3.03051 17.9669 2.08989 16.8066 2.08989Z" fill="#FFAB00"/>
</svg>
