<svg width="94" height="94" viewBox="0 0 94 94" fill="none" xmlns="http://www.w3.org/2000/svg">
<path d="M2.9375 27.5381H36.8206" stroke="#FAC251" stroke-width="4" stroke-miterlimit="10" stroke-linecap="round" stroke-linejoin="round"/>
<path d="M2.9375 39.2881H57.0619" stroke="#FAC251" stroke-width="4" stroke-miterlimit="10" stroke-linecap="round" stroke-linejoin="round"/>
<path d="M14.6875 49.5693H29.375" stroke="#FAC251" stroke-width="4" stroke-miterlimit="10" stroke-linecap="round" stroke-linejoin="round"/>
<path d="M61.6875 45.8896V59.8506H2.9375V12.8506H61.6875V21.6631" stroke="#939393" stroke-width="2.3" stroke-miterlimit="10" stroke-linecap="round" stroke-linejoin="round"/>
<path d="M73.4375 51.0381C64.625 51.0381 55.8125 42.2256 55.8125 33.4131H47C43.8837 33.4131 40.895 32.1751 38.6915 29.9716C36.4879 27.768 35.25 24.7794 35.25 21.6631H61.6875C69.4782 21.6631 76.9499 24.7579 82.4588 30.2668C87.9676 35.7757 91.0625 43.2473 91.0625 51.0381C91.0625 58.8288 87.9676 66.3005 82.4588 71.8093C76.9499 77.3182 69.4782 80.4131 61.6875 80.4131H29.375C27.0378 80.4131 24.7963 79.4846 23.1436 77.832C21.491 76.1793 20.5625 73.9378 20.5625 71.6006V68.6631H47" stroke="#939393" stroke-width="2.3" stroke-miterlimit="10" stroke-linecap="round" stroke-linejoin="round"/>
<path d="M20.5625 68.6631C18.2253 68.6631 15.9838 67.7346 14.3311 66.082C12.6785 64.4293 11.75 62.1878 11.75 59.8506" stroke="#939393" stroke-width="2.3" stroke-miterlimit="10" stroke-linecap="round" stroke-linejoin="round"/>
</svg>
