<svg width="50" height="50" viewBox="0 0 50 50" fill="none" xmlns="http://www.w3.org/2000/svg">
<path d="M43.4167 9.60416C42.3526 8.53958 41.0892 7.69508 39.6987 7.11891C38.3081 6.54274 36.8177 6.24619 35.3125 6.24619C33.8073 6.24619 32.3169 6.54274 30.9264 7.11891C29.5358 7.69508 28.2724 8.53958 27.2084 9.60416L25 11.8125L22.7917 9.60416C20.6423 7.4548 17.7272 6.2473 14.6875 6.2473C11.6479 6.2473 8.73272 7.4548 6.58336 9.60416C4.434 11.7535 3.2265 14.6687 3.2265 17.7083C3.2265 20.748 4.434 23.6631 6.58336 25.8125L8.79169 28.0208L25 44.2291L41.2084 28.0208L43.4167 25.8125C44.4813 24.7484 45.3258 23.485 45.9019 22.0945C46.4781 20.7039 46.7747 19.2135 46.7747 17.7083C46.7747 16.2031 46.4781 14.7127 45.9019 13.3222C45.3258 11.9316 44.4813 10.6682 43.4167 9.60416V9.60416Z" stroke="#787878" stroke-width="2" stroke-linecap="round" stroke-linejoin="round"/>
</svg>
